<mxfile host="app.diagrams.net" modified="2022-07-26T14:24:00.215Z" agent="5.0 (Windows NT 10.0; Win64; x64) AppleWebKit/537.36 (KHTML, like Gecko) Chrome/103.0.0.0 Safari/537.36" etag="VLXmlORhxUU3F9srKMoA" version="20.2.0" type="github" pages="2">
  <diagram id="ROn9WYHZfY70gGPgJOtA" name="Pages">
    <mxGraphModel dx="868" dy="450" grid="1" gridSize="10" guides="1" tooltips="1" connect="1" arrows="1" fold="1" page="1" pageScale="1" pageWidth="827" pageHeight="1169" math="0" shadow="0">
      <root>
        <mxCell id="0" />
        <mxCell id="1" parent="0" />
        <mxCell id="63-bsJ-JKU0md2PjkSOt-3" style="edgeStyle=orthogonalEdgeStyle;rounded=0;orthogonalLoop=1;jettySize=auto;html=1;exitX=0;exitY=0.5;exitDx=0;exitDy=0;entryX=0.5;entryY=0;entryDx=0;entryDy=0;fontSize=22;strokeWidth=4;fillColor=#1ba1e2;strokeColor=#006EAF;" edge="1" parent="1" source="63-bsJ-JKU0md2PjkSOt-1" target="63-bsJ-JKU0md2PjkSOt-2">
          <mxGeometry relative="1" as="geometry" />
        </mxCell>
        <mxCell id="63-bsJ-JKU0md2PjkSOt-1" value="&lt;font style=&quot;&quot;&gt;&lt;b style=&quot;&quot;&gt;&lt;font style=&quot;font-size: 28px;&quot;&gt;Pages&lt;/font&gt;&lt;/b&gt;&lt;br&gt;&lt;/font&gt;" style="ellipse;whiteSpace=wrap;html=1;" vertex="1" parent="1">
          <mxGeometry x="316" y="20" width="196" height="80" as="geometry" />
        </mxCell>
        <mxCell id="63-bsJ-JKU0md2PjkSOt-2" value="Home (index.tsx)" style="swimlane;fontSize=22;startSize=50;" vertex="1" parent="1">
          <mxGeometry x="10" y="140" width="200" height="140" as="geometry">
            <mxRectangle x="10" y="140" width="220" height="50" as="alternateBounds" />
          </mxGeometry>
        </mxCell>
        <mxCell id="63-bsJ-JKU0md2PjkSOt-4" value="home title" style="text;html=1;align=center;verticalAlign=middle;resizable=0;points=[];autosize=1;strokeColor=none;fillColor=none;fontSize=20;" vertex="1" parent="63-bsJ-JKU0md2PjkSOt-2">
          <mxGeometry x="45" y="50" width="110" height="40" as="geometry" />
        </mxCell>
        <mxCell id="63-bsJ-JKU0md2PjkSOt-5" value="tokens price list" style="text;html=1;align=center;verticalAlign=middle;resizable=0;points=[];autosize=1;strokeColor=none;fillColor=none;fontSize=20;" vertex="1" parent="63-bsJ-JKU0md2PjkSOt-2">
          <mxGeometry x="20" y="90" width="160" height="40" as="geometry" />
        </mxCell>
      </root>
    </mxGraphModel>
  </diagram>
  <diagram id="GhkSKxPYrzx1AKKkU4oQ" name="Store">
    <mxGraphModel dx="868" dy="450" grid="1" gridSize="10" guides="1" tooltips="1" connect="1" arrows="1" fold="1" page="1" pageScale="1" pageWidth="827" pageHeight="1169" math="0" shadow="0">
      <root>
        <mxCell id="0" />
        <mxCell id="1" parent="0" />
        <mxCell id="dOHQmxnFaItc83g59KXa-7" style="edgeStyle=orthogonalEdgeStyle;rounded=0;orthogonalLoop=1;jettySize=auto;html=1;fontSize=20;strokeWidth=4;fillColor=#e3c800;strokeColor=#B09500;" edge="1" parent="1" source="MEu0Te1adbFa7gdquFtb-1" target="dOHQmxnFaItc83g59KXa-5">
          <mxGeometry relative="1" as="geometry">
            <Array as="points">
              <mxPoint x="680" y="50" />
            </Array>
          </mxGeometry>
        </mxCell>
        <mxCell id="FkEy9mwxWN82ccsKjt8l-4" style="edgeStyle=orthogonalEdgeStyle;rounded=0;orthogonalLoop=1;jettySize=auto;html=1;exitX=0.5;exitY=1;exitDx=0;exitDy=0;entryX=0.46;entryY=-0.02;entryDx=0;entryDy=0;entryPerimeter=0;fontSize=20;strokeColor=#B09500;strokeWidth=4;fillColor=#e3c800;" edge="1" parent="1" source="MEu0Te1adbFa7gdquFtb-1" target="79Ey9EO5SjQSxZGQQASU-1">
          <mxGeometry relative="1" as="geometry" />
        </mxCell>
        <mxCell id="FkEy9mwxWN82ccsKjt8l-5" style="edgeStyle=orthogonalEdgeStyle;rounded=0;orthogonalLoop=1;jettySize=auto;html=1;exitX=0;exitY=0.5;exitDx=0;exitDy=0;entryX=0.455;entryY=-0.02;entryDx=0;entryDy=0;entryPerimeter=0;fontSize=20;strokeColor=#B09500;strokeWidth=4;fillColor=#e3c800;" edge="1" parent="1" source="MEu0Te1adbFa7gdquFtb-1" target="dOHQmxnFaItc83g59KXa-2">
          <mxGeometry relative="1" as="geometry" />
        </mxCell>
        <mxCell id="MEu0Te1adbFa7gdquFtb-1" value="&lt;font style=&quot;font-size: 28px;&quot;&gt;Store&lt;/font&gt;" style="ellipse;whiteSpace=wrap;html=1;fontSize=22;" vertex="1" parent="1">
          <mxGeometry x="321" y="10" width="176" height="80" as="geometry" />
        </mxCell>
        <mxCell id="FkEy9mwxWN82ccsKjt8l-2" style="edgeStyle=orthogonalEdgeStyle;shape=flexArrow;rounded=0;orthogonalLoop=1;jettySize=auto;html=1;entryX=0;entryY=0.5;entryDx=0;entryDy=0;fontSize=20;strokeColor=#FF6666;strokeWidth=4;" edge="1" parent="1" source="79Ey9EO5SjQSxZGQQASU-1" target="dOHQmxnFaItc83g59KXa-5">
          <mxGeometry relative="1" as="geometry" />
        </mxCell>
        <mxCell id="79Ey9EO5SjQSxZGQQASU-1" value="Reducers" style="swimlane;fontSize=24;startSize=50;gradientColor=default;fillColor=none;" vertex="1" parent="1">
          <mxGeometry x="314" y="130" width="200" height="100" as="geometry">
            <mxRectangle x="20" y="130" width="150" height="50" as="alternateBounds" />
          </mxGeometry>
        </mxCell>
        <mxCell id="79Ey9EO5SjQSxZGQQASU-3" value="socketReducer" style="text;html=1;align=center;verticalAlign=middle;resizable=0;points=[];autosize=1;strokeColor=none;fillColor=none;fontSize=20;" vertex="1" parent="79Ey9EO5SjQSxZGQQASU-1">
          <mxGeometry x="20" y="50" width="160" height="40" as="geometry" />
        </mxCell>
        <mxCell id="FkEy9mwxWN82ccsKjt8l-1" style="edgeStyle=orthogonalEdgeStyle;shape=flexArrow;rounded=0;orthogonalLoop=1;jettySize=auto;html=1;entryX=0;entryY=0.5;entryDx=0;entryDy=0;fontSize=20;strokeColor=#FF6666;strokeWidth=4;" edge="1" parent="1" source="dOHQmxnFaItc83g59KXa-2" target="79Ey9EO5SjQSxZGQQASU-1">
          <mxGeometry relative="1" as="geometry" />
        </mxCell>
        <mxCell id="dOHQmxnFaItc83g59KXa-2" value="Actions" style="swimlane;fontSize=24;startSize=50;gradientColor=default;fillColor=none;" vertex="1" parent="1">
          <mxGeometry x="30" y="130" width="200" height="100" as="geometry">
            <mxRectangle x="309" y="130" width="150" height="50" as="alternateBounds" />
          </mxGeometry>
        </mxCell>
        <mxCell id="dOHQmxnFaItc83g59KXa-3" value="getSocketData" style="text;html=1;align=center;verticalAlign=middle;resizable=0;points=[];autosize=1;strokeColor=none;fillColor=none;fontSize=20;" vertex="1" parent="dOHQmxnFaItc83g59KXa-2">
          <mxGeometry x="25" y="50" width="150" height="40" as="geometry" />
        </mxCell>
        <mxCell id="dOHQmxnFaItc83g59KXa-5" value="State Store" style="swimlane;fontSize=24;startSize=50;gradientColor=default;fillColor=none;" vertex="1" parent="1">
          <mxGeometry x="590" y="130" width="200" height="100" as="geometry">
            <mxRectangle x="570" y="130" width="150" height="50" as="alternateBounds" />
          </mxGeometry>
        </mxCell>
        <mxCell id="dOHQmxnFaItc83g59KXa-6" value="socket state" style="text;html=1;align=center;verticalAlign=middle;resizable=0;points=[];autosize=1;strokeColor=none;fillColor=none;fontSize=20;" vertex="1" parent="dOHQmxnFaItc83g59KXa-5">
          <mxGeometry x="35" y="50" width="130" height="40" as="geometry" />
        </mxCell>
      </root>
    </mxGraphModel>
  </diagram>
</mxfile>
